<svg width="842" height="160" viewBox="0 0 842 160" fill="none" xmlns="http://www.w3.org/2000/svg">
<mask id="mask0_760_696" style="mask-type:alpha" maskUnits="userSpaceOnUse" x="261" y="0" width="581" height="160">
<rect x="261" width="581" height="160" fill="#070606"/>
</mask>
<g mask="url(#mask0_760_696)">
<path d="M299.114 116.212C297.489 116.777 295.51 117.06 293.178 117.06C287.313 117.06 283.002 115.541 280.246 112.502C277.561 109.393 276.218 104.623 276.218 98.192V67.24H264.77V62.894L284.91 39.468H288.938V62.894H308.018V67.24H288.938V99.464C288.938 105.188 291.694 108.05 297.206 108.05C298.69 108.05 300.104 107.732 301.446 107.096C302.86 106.46 304.591 105.329 306.64 103.704L309.82 107.732L299.114 116.212ZM346.82 116H317.246V112.714L326.68 105.294V74.342L317.246 67.77V64.484L335.372 57.7H339.4V108.05L348.94 111.76L346.82 116ZM332.616 25.9C334.736 25.9 336.467 26.6773 337.81 28.232C339.223 29.7867 339.93 31.73 339.93 34.062C339.93 35.6873 339.435 37.242 338.446 38.726C337.457 40.1393 336.22 41.27 334.736 42.118C333.252 42.966 331.803 43.39 330.39 43.39C328.27 43.39 326.503 42.6127 325.09 41.058C323.747 39.5033 323.076 37.56 323.076 35.228C323.076 33.6027 323.571 32.0833 324.56 30.67C325.549 29.186 326.786 28.02 328.27 27.172C329.754 26.324 331.203 25.9 332.616 25.9ZM424.059 116.106H403.919V80.384C403.919 76.4973 403.319 73.7767 402.117 72.222C400.916 70.6673 398.761 69.89 395.651 69.89C393.319 69.89 390.987 70.314 388.655 71.162C386.394 72.01 383.709 73.6353 380.599 76.038V108.156L390.139 111.866L388.019 116.106H358.445V112.82L367.879 105.4V75.402L358.445 69.89V66.604L376.571 57.7L380.069 71.48L395.121 59.502C396.605 58.9367 398.549 58.654 400.951 58.654C405.757 58.654 409.573 60.138 412.399 63.106C415.226 66.0033 416.639 69.9607 416.639 74.978V108.05L426.179 111.866L424.059 116.106ZM490.601 63L463.783 116L441.735 143.984L437.707 140.804C441.735 136.493 444.773 132.713 446.823 129.462C448.943 126.211 450.427 122.925 451.275 119.604C452.123 116.353 452.547 112.467 452.547 107.944L439.191 75.614L429.333 69.89V66.604L447.459 57.7L451.487 73.706L464.419 105.294L479.365 74.236L465.267 63.954L467.387 59.714H490.601V63ZM540.963 75.402C545.768 75.402 549.549 74.0947 552.305 71.48C555.132 68.8653 556.545 65.2613 556.545 60.668C556.545 54.1667 554.884 48.8667 551.563 44.768C548.312 40.5987 543.542 38.514 537.253 38.514C532.448 38.514 528.066 39.892 524.109 42.648V107.308L540.539 111.866L538.419 116.106H500.895V112.82L510.859 104.976V40.528L499.835 36.924L501.955 32.684H514.251C521.106 32.684 527.854 32.472 534.497 32.048C539.444 31.7653 543.083 31.624 545.415 31.624C550.362 31.624 554.743 32.684 558.559 34.804C562.446 36.8533 565.449 39.7153 567.569 43.39C569.689 47.0647 570.749 51.128 570.749 55.58C570.749 60.5267 568.947 65.1907 565.343 69.572C561.739 73.9533 557.146 77.3807 551.563 79.854C545.98 82.3273 540.504 83.4227 535.133 83.14L530.151 79.536L532.271 75.296H540.857L540.963 75.402ZM616.992 58.76C619.324 58.76 621.374 59.396 623.14 60.668C624.907 61.94 626.285 63.7067 627.274 65.968L620.278 74.766H616.25C615.968 72.9993 615.438 71.7627 614.66 71.056C613.954 70.2787 612.964 69.89 611.692 69.89C610.138 69.89 608.477 70.314 606.71 71.162C605.014 71.9393 603.071 73.4587 600.88 75.72V107.308L615.72 111.866L613.6 116.106H578.726V112.82L588.16 105.4V75.402L578.726 69.89V66.604L596.852 57.7L600.138 70.738L611.162 59.502C612.646 58.9367 614.59 58.654 616.992 58.654V58.76ZM669.839 116.212C667.013 116.777 663.621 117.06 659.663 117.06C654.999 117.06 650.795 115.859 647.049 113.456C643.375 110.983 640.477 107.661 638.357 103.492C636.308 99.3227 635.283 94.7293 635.283 89.712C635.283 84.2707 636.944 79.1827 640.265 74.448C643.587 69.6427 647.721 65.8267 652.667 63C657.685 60.1027 662.525 58.654 667.189 58.654C673.903 58.654 679.097 61.304 682.771 66.604C686.517 71.904 688.389 78.9 688.389 87.592H649.169C649.593 93.5987 651.219 98.51 654.045 102.326C656.943 106.142 660.865 108.05 665.811 108.05C670.405 108.05 676.941 104.481 685.421 97.344L688.601 101.372L669.839 116.212ZM661.041 67.558C653.409 67.558 649.417 72.7873 649.063 83.246H673.867C673.231 79.43 672.56 76.5327 671.853 74.554C671.217 72.5047 670.051 70.844 668.355 69.572C666.73 68.2293 664.292 67.558 661.041 67.558ZM735.939 104.552C735.939 102.573 734.843 100.771 732.653 99.146C730.462 97.45 727.105 95.436 722.583 93.104C718.908 91.196 715.94 89.5353 713.679 88.122C711.417 86.7087 709.474 85.0833 707.849 83.246C706.294 81.338 705.517 79.2887 705.517 77.098C705.517 74.554 706.577 71.8333 708.697 68.936C710.817 66.0387 713.431 63.6007 716.541 61.622C719.65 59.6433 722.547 58.654 725.233 58.654C728.483 58.654 732.229 59.078 736.469 59.926C740.779 60.7033 743.889 61.5867 745.797 62.576V78.9H741.769C739.507 74.5187 736.893 71.1267 733.925 68.724C730.957 66.2507 727.918 65.014 724.809 65.014C722.618 65.014 720.851 65.6147 719.509 66.816C718.166 67.9467 717.495 69.3953 717.495 71.162C717.495 73.3527 718.625 75.3313 720.887 77.098C723.219 78.794 726.717 80.808 731.381 83.14C734.985 84.9773 737.882 86.5673 740.073 87.91C742.263 89.2527 744.101 90.8427 745.585 92.68C747.139 94.4467 747.917 96.4253 747.917 98.616C747.917 101.231 746.786 103.987 744.525 106.884C742.334 109.711 739.613 112.113 736.363 114.092C733.183 116.071 730.25 117.06 727.565 117.06C724.102 117.06 719.968 116.671 715.163 115.894C710.428 115.046 707.036 114.127 704.987 113.138V96.814H709.015C711.488 101.195 714.421 104.623 717.813 107.096C721.205 109.499 724.632 110.7 728.095 110.7C730.427 110.7 732.299 110.099 733.713 108.898C735.197 107.697 735.939 106.248 735.939 104.552ZM795.15 104.552C795.15 102.573 794.054 100.771 791.864 99.146C789.673 97.45 786.316 95.436 781.794 93.104C778.119 91.196 775.151 89.5353 772.89 88.122C770.628 86.7087 768.685 85.0833 767.06 83.246C765.505 81.338 764.728 79.2887 764.728 77.098C764.728 74.554 765.788 71.8333 767.908 68.936C770.028 66.0387 772.642 63.6007 775.752 61.622C778.861 59.6433 781.758 58.654 784.444 58.654C787.694 58.654 791.44 59.078 795.68 59.926C799.99 60.7033 803.1 61.5867 805.008 62.576V78.9H800.98C798.718 74.5187 796.104 71.1267 793.136 68.724C790.168 66.2507 787.129 65.014 784.02 65.014C781.829 65.014 780.062 65.6147 778.72 66.816C777.377 67.9467 776.706 69.3953 776.706 71.162C776.706 73.3527 777.836 75.3313 780.098 77.098C782.43 78.794 785.928 80.808 790.592 83.14C794.196 84.9773 797.093 86.5673 799.284 87.91C801.474 89.2527 803.312 90.8427 804.796 92.68C806.35 94.4467 807.128 96.4253 807.128 98.616C807.128 101.231 805.997 103.987 803.736 106.884C801.545 109.711 798.824 112.113 795.574 114.092C792.394 116.071 789.461 117.06 786.776 117.06C783.313 117.06 779.179 116.671 774.374 115.894C769.639 115.046 766.247 114.127 764.198 113.138V96.814H768.226C770.699 101.195 773.632 104.623 777.024 107.096C780.416 109.499 783.843 110.7 787.306 110.7C789.638 110.7 791.51 110.099 792.924 108.898C794.408 107.697 795.15 106.248 795.15 104.552Z" fill="#24417C"/>
</g>
<path d="M100.468 42.6118C100.468 42.6118 51.1276 2.48174 15.322 51.147C12.6657 54.7573 10.57 58.7703 9.39338 63.0954C6.31331 74.4176 2.97191 98.6322 22.8202 117.436C49.6439 142.848 80.7029 132.965 103.291 114.612C125.88 96.2592 149.88 82.1415 156.939 80.7297L142.115 71.5532C142.115 71.5532 105.409 92.7298 94.1148 102.612C82.8206 112.495 50.3498 133.671 26.3496 96.9651C26.3496 96.9651 9.40835 71.5532 37.6438 48.9648C37.6438 48.9648 55.9969 32.0235 88.4677 51.7883L100.468 42.6118Z" fill="#24417C"/>
<path d="M117.177 117.219C117.177 117.219 166.517 157.349 202.323 108.684C204.979 105.074 207.075 101.061 208.251 96.7357C211.331 85.4134 214.673 61.1989 194.824 42.3952C168.001 16.9833 136.942 26.8657 114.353 45.2188C91.7648 63.5718 67.7646 77.6896 60.7058 79.1013L75.5294 88.2779C75.5294 88.2779 112.236 67.1013 123.53 57.2188C134.824 47.3364 167.295 26.1598 191.295 62.8659C191.295 62.8659 208.236 88.2779 180.001 110.866C180.001 110.866 161.648 127.808 129.177 108.043L117.177 117.219Z" fill="#24417C"/>
<path d="M144.285 111.41C144.285 111.41 165.462 122.704 183.815 101.528C202.168 80.3513 186.639 54.9393 173.933 49.2922C161.227 43.6451 154.168 45.0569 144.285 47.8804C144.285 47.8804 183.815 45.242 185.227 80.3513C185.227 80.3513 183.815 118.469 144.285 111.41Z" fill="#24417C" fill-opacity="0.8"/>
<path d="M73.3591 111.413C73.3591 111.413 52.1824 122.707 33.8294 101.531C15.4763 80.3542 31.0058 54.9422 43.7118 49.2952C56.4178 43.6481 63.4766 45.0598 73.3591 47.8834C73.3591 47.8834 33.8294 45.2449 32.4176 80.3542C32.4176 80.3542 33.8294 118.472 73.3591 111.413Z" fill="#24417C" fill-opacity="0.8"/>
<circle cx="201.88" cy="38.3531" r="18.3531" fill="#24417C"/>
<circle cx="18.3531" cy="121.647" r="18.3531" fill="#24417C"/>
</svg>
